<svg width="98" height="83" viewBox="0 0 98 83" fill="none" xmlns="http://www.w3.org/2000/svg">
<g id="32/Cloudy">
<path id="outline" fill-rule="evenodd" clip-rule="evenodd" d="M35.316 20.8951C36.4001 20.7992 37.5 20.75 38.6129 20.75C53.4987 20.75 66.0461 29.5422 69.8894 41.536C70.197 41.5191 70.5065 41.508 70.8176 41.5031C70.6911 41.5012 70.5644 41.5003 70.4374 41.5003L70.3347 41.5005L70.3346 41.5H75.0311H75.2156V41.4987C81.0503 41.4153 85.7499 37.3834 85.7499 32.4219C85.7499 27.4082 80.9509 23.3438 75.0311 23.3438C73.0435 23.3438 71.1823 23.802 69.5866 24.6004C69.5818 23.1512 69.322 21.7528 68.843 20.4358C66.4567 14.5807 59.8923 10.375 52.1682 10.375C44.2435 10.375 37.5396 14.8019 35.316 20.8951ZM83.2285 44.8871C88.4638 48.1812 91.875 53.5688 91.875 59.6562C91.875 69.6836 82.6189 77.8124 71.201 77.8124C70.9454 77.8124 70.6909 77.8083 70.4375 77.8003V77.8125H39.0993V77.8094C38.9375 77.8115 38.7753 77.8125 38.6129 77.8125C20.6703 77.8125 6.125 65.0386 6.125 49.2812C6.125 36.5572 15.6094 25.7785 28.7082 22.1002C30.5237 12.5124 40.3359 5.1875 52.1682 5.1875C62.3199 5.1875 70.9847 10.5795 74.3878 18.1665C74.6012 18.1597 74.8157 18.1562 75.0311 18.1562C84.3337 18.1562 91.8749 24.5432 91.8749 32.4219C91.8749 37.7803 88.3867 42.4487 83.2285 44.8871ZM70.4375 72.625H39.0993H38.7468V72.6247L38.6129 72.625C24.2605 72.625 12.25 62.3525 12.25 49.2812C12.25 36.21 24.2605 25.9375 38.6129 25.9375C50.7881 25.9375 61.278 33.3298 64.1804 43.552L64.1896 43.5488C64.5995 44.9672 64.8608 46.4376 64.9582 47.9467C66.8664 47.1367 68.9895 46.6875 71.201 46.6875C79.0287 46.6875 85.75 52.3149 85.75 59.6562C85.75 66.9461 79.1226 72.546 71.3653 72.6241V72.625H70.4375Z" fill="url(#paint0_linear_116_152)"/>
</g>
<defs>
<linearGradient id="paint0_linear_116_152" x1="49" y1="5.1875" x2="49" y2="77.8125" gradientUnits="userSpaceOnUse">
<stop stop-color="#B2D4F7"/>
<stop offset="1" stop-color="#D9E2F3"/>
</linearGradient>
</defs>
</svg>
