<svg width="151" height="128" viewBox="0 0 151 128" fill="none" xmlns="http://www.w3.org/2000/svg">
<path id="Vector" d="M22.315 76.132L13.157 67.142C-1.71399 52.542 -3.43199 28.355 10.713 13.053C14.1697 9.30826 18.3433 6.2959 22.9862 4.19463C27.6291 2.09335 32.6467 0.945961 37.7414 0.82052C42.8361 0.695078 47.9041 1.59414 52.6448 3.46437C57.3855 5.33461 61.7022 8.13791 65.339 11.708L75.678 21.857L84.685 12.696C99.294 -2.163 123.485 -3.863 138.775 10.296C142.517 13.7558 145.526 17.9319 147.624 22.5766C149.721 27.2213 150.864 32.24 150.986 37.3349C151.107 42.4298 150.204 47.4972 148.329 52.2364C146.455 56.9756 143.648 61.2901 140.075 64.924L91.675 114.146L80.025 125.994C79.1224 126.912 77.8921 127.434 76.6046 127.446C75.3172 127.457 74.0778 126.957 73.159 126.055L22.315 76.132Z" fill="#E51C39"/>
</svg>
