<svg width="99" height="103" viewBox="0 0 99 103" fill="none" xmlns="http://www.w3.org/2000/svg">
<g id="32/Drizzle">
<path id="outline" fill-rule="evenodd" clip-rule="evenodd" d="M92.8125 54.7187C92.8125 65.1414 86.2525 73.9112 77.3438 76.4848V69.6753C82.7004 67.3419 86.625 61.645 86.625 54.7187C86.625 45.6084 79.8352 38.625 71.9275 38.625C69.6935 38.625 67.5487 39.1824 65.621 40.1876C65.5227 38.3149 65.2587 36.4901 64.8446 34.73L64.8353 34.734C61.9033 22.0486 51.3063 12.875 39.0069 12.875C24.5081 12.875 12.375 25.6227 12.375 41.8438C12.375 52.2375 17.3565 61.2053 24.75 66.3071V73.7438C13.7653 68.0196 6.1875 55.8864 6.1875 41.8438C6.1875 22.2894 20.8812 6.4375 39.0069 6.4375C54.0446 6.4375 66.7201 17.3483 70.6025 32.2321C71.0407 32.2025 71.4825 32.1875 71.9275 32.1875C83.462 32.1875 92.8125 42.2751 92.8125 54.7187ZM30.9407 72.1294C30.9403 70.5896 31.4117 68.916 32.0541 67.3505C33.4261 64.0069 35.5781 61.1562 35.5781 61.1562C35.5781 61.1562 37.6332 64.1094 39.0091 67.353C39.7013 68.9846 40.2216 70.6897 40.222 72.1294C40.2228 74.9574 38.1458 77.25 35.5829 77.25C33.0199 77.25 30.9416 74.9574 30.9407 72.1294ZM47.5228 67.3505C46.8805 68.916 46.409 70.5896 46.4095 72.1294C46.4103 74.9574 48.4887 77.25 51.0516 77.25C53.6146 77.25 55.6916 74.9574 55.6907 72.1294C55.6903 70.6897 55.17 68.9846 54.4779 67.353C53.102 64.1094 51.0469 61.1562 51.0469 61.1562C51.0469 61.1562 48.8949 64.0069 47.5228 67.3505ZM39.8338 88.2231C39.8333 86.6834 40.3047 85.0098 40.9471 83.4443C42.3192 80.1006 44.4711 77.25 44.4711 77.25C44.4711 77.25 46.5262 80.2032 47.9022 83.4468C48.5943 85.0784 49.1146 86.7835 49.115 88.2231C49.1158 91.0512 47.0388 93.3438 44.4759 93.3438C41.9129 93.3438 39.8346 91.0512 39.8338 88.2231ZM62.9916 67.3505C62.3492 68.916 61.8778 70.5896 61.8782 72.1294C61.8791 74.9574 63.9574 77.25 66.5204 77.25C69.0833 77.25 71.1603 74.9574 71.1595 72.1294C71.1591 70.6897 70.6388 68.9846 69.9466 67.353C68.5707 64.1094 66.5156 61.1562 66.5156 61.1562C66.5156 61.1562 64.3636 64.0069 62.9916 67.3505ZM55.3486 88.2231C55.3481 86.6834 55.8195 85.0098 56.4619 83.4443C57.834 80.1006 59.986 77.25 59.986 77.25C59.986 77.25 62.041 80.2032 63.417 83.4468C64.1091 85.0784 64.6294 86.7835 64.6298 88.2231C64.6307 91.0512 62.5537 93.3438 59.9907 93.3438C57.4278 93.3438 55.3494 91.0512 55.3486 88.2231Z" fill="url(#paint0_linear_102_189)"/>
</g>
<defs>
<linearGradient id="paint0_linear_102_189" x1="49.5" y1="6.4375" x2="49.5" y2="93.3438" gradientUnits="userSpaceOnUse">
<stop stop-color="#95B6F6"/>
<stop offset="1" stop-color="#5193DE"/>
</linearGradient>
</defs>
</svg>
