<svg width="101" height="101" viewBox="0 0 101 101" fill="none" xmlns="http://www.w3.org/2000/svg">
<g id="Frame">
<path id="Vector" fill-rule="evenodd" clip-rule="evenodd" d="M44.1698 50.5038L28.0305 59.9435L15.2373 54.071L12.6111 59.8482L21.3417 63.8557L16.5394 66.6644L19.665 72.1487L24.4665 69.3406L23.5274 79.0025L29.779 79.5867L31.1553 65.4284L47.3021 55.9843V74.9698L35.8768 83.2622L39.5847 88.3712L47.3021 82.7698V88.375H53.6146V82.7695L61.3326 88.3712L65.0405 83.2622L53.6146 74.9695V56.0279L69.7976 65.4931L71.1741 79.6533L77.426 79.0688L76.4864 69.4053L81.2889 72.2144L84.4145 66.7301L79.6129 63.9213L88.3422 59.9145L85.7159 54.1376L72.9242 60.0092L56.6724 50.5038L72.874 41.0275L85.7503 46.9382L88.3766 41.1613L79.5628 37.1153L84.4209 34.2737L81.2955 28.7895L76.5299 31.5767L77.4604 22.0069L71.2085 21.4224L69.8412 35.4889L53.6146 44.9797V26.0945L65.1138 17.7484L61.4061 12.6397L53.6146 18.2945V12.625H47.3021V18.1878L39.6583 12.6397L35.9503 17.7484L47.3021 25.9876V45.0233L31.2049 35.6082L29.8196 21.3568L23.5679 21.9412L24.5161 31.696L19.6587 28.855L16.5331 34.3394L21.2983 37.1263L12.6517 41.0956L15.2779 46.8725L27.9871 41.0385L44.1698 50.5038Z" fill="url(#paint0_linear_116_90)"/>
</g>
<defs>
<linearGradient id="paint0_linear_116_90" x1="50.4937" y1="12.625" x2="50.4937" y2="88.375" gradientUnits="userSpaceOnUse">
<stop stop-color="#B2D4F7"/>
<stop offset="1" stop-color="#D9E2F3"/>
</linearGradient>
</defs>
</svg>
