<svg width="92" height="143" viewBox="0 0 92 143" fill="none" xmlns="http://www.w3.org/2000/svg">
<path id="Vector" d="M39.6881 70.932C39.6892 55.7426 44.5655 40.9546 53.5996 28.7438C62.6337 16.5331 75.3484 7.54426 89.8731 3.09998C79.2672 0.173462 68.1259 -0.245068 57.3304 1.8775C46.5349 4.00007 36.3813 8.60551 27.6729 15.3295C18.9646 22.0535 11.9402 30.7116 7.15554 40.619C2.37087 50.5263 -0.0428485 61.4111 0.105308 72.4123C0.253464 83.4135 2.95943 94.2293 8.00916 104.004C13.0589 113.779 20.3139 122.245 29.2002 128.732C38.0865 135.219 48.3603 139.549 59.2091 141.38C70.0579 143.211 81.1839 142.493 91.7071 139.282C76.7551 135.145 63.5716 126.221 54.1761 113.876C44.7807 101.53 39.6915 86.4457 39.6881 70.932Z" fill="#F9D22D"/>
</svg>
