<svg width="118" height="118" viewBox="0 0 118 118" fill="none" xmlns="http://www.w3.org/2000/svg">
<g id="32/Sunny">
<path id="outline" fill-rule="evenodd" clip-rule="evenodd" d="M55.3125 18.4375V7.375H62.6875V18.4375H55.3125ZM76.088 22.0284L81.6193 12.448L88.0062 16.1355L82.4749 25.7159L76.088 22.0284ZM59 84.8125C73.2559 84.8125 84.8125 73.2559 84.8125 59C84.8125 44.7441 73.2559 33.1875 59 33.1875C44.7441 33.1875 33.1875 44.7441 33.1875 59C33.1875 73.2559 44.7441 84.8125 59 84.8125ZM59 92.1875C77.3289 92.1875 92.1875 77.3289 92.1875 59C92.1875 40.6711 77.3289 25.8125 59 25.8125C40.6711 25.8125 25.8125 40.6711 25.8125 59C25.8125 77.3289 40.6711 92.1875 59 92.1875ZM99.5625 55.3125H110.625V62.6875H99.5625V55.3125ZM101.865 29.994L92.2843 35.5253L95.9718 41.9122L105.552 36.381L101.865 29.994ZM29.994 16.1355L35.5253 25.7159L41.9122 22.0284L36.381 12.448L29.994 16.1355ZM22.0282 41.9122L12.4478 36.381L16.1353 29.994L25.7157 35.5253L22.0282 41.9122ZM55.3125 99.5625V110.625H62.6875V99.5625H55.3125ZM18.4375 55.3125H7.375V62.6875H18.4375V55.3125ZM12.4476 81.619L22.028 76.0878L25.7155 82.4747L16.1351 88.006L12.4476 81.619ZM35.5255 92.2847L29.9943 101.865L36.3812 105.553L41.9124 95.9722L35.5255 92.2847ZM81.619 105.553L76.0878 95.9722L82.4747 92.2847L88.006 101.865L81.619 105.553ZM92.2845 82.4747L101.865 88.006L105.552 81.619L95.972 76.0878L92.2845 82.4747Z" fill="url(#paint0_linear_102_78)"/>
</g>
<defs>
<linearGradient id="paint0_linear_102_78" x1="59" y1="7.375" x2="59" y2="110.625" gradientUnits="userSpaceOnUse">
<stop stop-color="#EFC977"/>
<stop offset="1" stop-color="#E07256"/>
</linearGradient>
</defs>
</svg>
