<svg width="108" height="96" viewBox="0 0 108 96" fill="none" xmlns="http://www.w3.org/2000/svg">
<g id="Frame">
<path id="Vector" fill-rule="evenodd" clip-rule="evenodd" d="M57.942 49.3359L63.5583 52.6641L53.5562 66H70.7255L52.2359 88.7565L46.764 85.2435L57.5242 72H40.9438L57.942 49.3359Z" fill="url(#paint0_linear_116_87)"/>
<path id="Vector_2" fill-rule="evenodd" clip-rule="evenodd" d="M33.75 70.995C18.233 67.3794 6.75 54.4257 6.75 39C6.75 20.7746 22.7795 6 42.553 6C58.9579 6 72.7856 16.1693 77.0209 30.0417C77.4988 30.0141 77.9807 30 78.4664 30C91.0494 30 101.25 39.402 101.25 51C101.25 62.598 91.0494 72 78.4664 72C78.1846 72 77.9041 71.9952 77.625 71.9859V66H78.6473C87.1962 65.9097 94.5 59.4315 94.5 51C94.5 42.5088 87.0929 36 78.4664 36C76.0293 36 73.6894 36.5196 71.5865 37.4565C71.4795 35.7111 71.1912 34.0101 70.7397 32.3697L70.7295 32.3733C67.5307 20.5501 55.9707 12 42.553 12C26.736 12 13.5 23.8814 13.5 39C13.5 51.1971 22.1151 61.2873 33.75 64.7316V70.995Z" fill="url(#paint1_linear_116_87)"/>
</g>
<defs>
<linearGradient id="paint0_linear_116_87" x1="55.8347" y1="49.3359" x2="55.8347" y2="88.7565" gradientUnits="userSpaceOnUse">
<stop stop-color="#F5BD52"/>
<stop offset="1" stop-color="#F5DA79"/>
</linearGradient>
<linearGradient id="paint1_linear_116_87" x1="54" y1="6" x2="54" y2="72" gradientUnits="userSpaceOnUse">
<stop stop-color="#95B6F6"/>
<stop offset="1" stop-color="#5193DE"/>
</linearGradient>
</defs>
</svg>
